<svg width="92" height="17" viewBox="0 0 92 17" fill="none" xmlns="http://www.w3.org/2000/svg">
<path d="M0.612267 16.5V0.5H3.94039V6.51562H4.04195C4.18779 6.19271 4.39872 5.86458 4.67477 5.53125C4.95602 5.19271 5.3206 4.91146 5.76852 4.6875C6.22164 4.45833 6.78414 4.34375 7.45602 4.34375C8.33102 4.34375 9.13831 4.57292 9.87789 5.03125C10.6175 5.48437 11.2086 6.16927 11.6513 7.08594C12.094 7.9974 12.3154 9.14062 12.3154 10.5156C12.3154 11.8542 12.0992 12.9844 11.667 13.9062C11.2399 14.8229 10.6565 15.5182 9.91695 15.9922C9.18258 16.4609 8.35966 16.6953 7.4482 16.6953C6.80237 16.6953 6.25289 16.5885 5.79977 16.375C5.35185 16.1615 4.98466 15.8932 4.6982 15.5703C4.41175 15.2422 4.193 14.9115 4.04195 14.5781H3.89352V16.5H0.612267ZM3.87008 10.5C3.87008 11.2135 3.96904 11.8359 4.16695 12.3672C4.36487 12.8984 4.65133 13.3125 5.02633 13.6094C5.40133 13.901 5.85706 14.0469 6.39352 14.0469C6.93518 14.0469 7.39352 13.8984 7.76852 13.6016C8.14352 13.2995 8.42737 12.8828 8.62008 12.3516C8.818 11.8151 8.91695 11.1979 8.91695 10.5C8.91695 9.80729 8.8206 9.19792 8.62789 8.67187C8.43518 8.14583 8.15133 7.73437 7.77633 7.4375C7.40133 7.14062 6.94039 6.99219 6.39352 6.99219C5.85185 6.99219 5.39352 7.13542 5.01852 7.42187C4.64872 7.70833 4.36487 8.11458 4.16695 8.64062C3.96904 9.16667 3.87008 9.78646 3.87008 10.5ZM16.1042 0.5V16.5H12.7761V0.5H16.1042ZM24.7055 11.3906V4.5H28.0337V16.5H24.8384V14.3203H24.7134C24.4425 15.0234 23.992 15.5885 23.3618 16.0156C22.7368 16.4427 21.9738 16.6563 21.0727 16.6563C20.2707 16.6563 19.5649 16.474 18.9555 16.1094C18.3462 15.7448 17.8696 15.2266 17.5259 14.5547C17.1873 13.8828 17.0154 13.0781 17.0102 12.1406V4.5H20.3384V11.5469C20.3436 12.2552 20.5337 12.8151 20.9087 13.2266C21.2837 13.638 21.7863 13.8437 22.4165 13.8437C22.8175 13.8437 23.1925 13.7526 23.5415 13.5703C23.8904 13.3828 24.1717 13.1068 24.3852 12.7422C24.604 12.3776 24.7108 11.9271 24.7055 11.3906ZM34.4045 16.7344C33.1702 16.7344 32.1077 16.4844 31.217 15.9844C30.3316 15.4792 29.6493 14.7656 29.1702 13.8437C28.691 12.9167 28.4514 11.8203 28.4514 10.5547C28.4514 9.32031 28.691 8.23698 29.1702 7.30469C29.6493 6.3724 30.3238 5.64583 31.1936 5.125C32.0686 4.60417 33.0946 4.34375 34.2717 4.34375C35.0634 4.34375 35.8004 4.47135 36.4827 4.72656C37.1702 4.97656 37.7691 5.35417 38.2795 5.85937C38.7952 6.36458 39.1962 7 39.4827 7.76562C39.7691 8.52604 39.9123 9.41667 39.9123 10.4375V11.3516H29.7795V9.28906H36.7795C36.7795 8.8099 36.6754 8.38542 36.467 8.01563C36.2587 7.64583 35.9696 7.35677 35.5998 7.14844C35.2353 6.9349 34.8108 6.82812 34.3264 6.82812C33.8212 6.82812 33.3733 6.94531 32.9827 7.17969C32.5972 7.40885 32.2952 7.71875 32.0764 8.10937C31.8577 8.49479 31.7457 8.92448 31.7405 9.39844V11.3594C31.7405 11.9531 31.8498 12.4661 32.0686 12.8984C32.2926 13.3307 32.6077 13.6641 33.0139 13.8984C33.4202 14.1328 33.9019 14.25 34.4592 14.25C34.829 14.25 35.1676 14.1979 35.4748 14.0938C35.7821 13.9896 36.0452 13.8333 36.2639 13.625C36.4827 13.4167 36.6493 13.1615 36.7639 12.8594L39.842 13.0625C39.6858 13.8021 39.3655 14.4479 38.8811 15C38.4019 15.5469 37.7821 15.974 37.0217 16.2813C36.2665 16.5833 35.3941 16.7344 34.4045 16.7344ZM44.7461 16.6953C43.8346 16.6953 43.0091 16.4609 42.2695 15.9922C41.5352 15.5182 40.9518 14.8229 40.5195 13.9062C40.0924 12.9844 39.8789 11.8542 39.8789 10.5156C39.8789 9.14062 40.1003 7.9974 40.543 7.08594C40.9857 6.16927 41.5742 5.48437 42.3086 5.03125C43.0482 4.57292 43.8581 4.34375 44.7383 4.34375C45.4102 4.34375 45.9701 4.45833 46.418 4.6875C46.8711 4.91146 47.2357 5.19271 47.5117 5.53125C47.793 5.86458 48.0065 6.19271 48.1523 6.51562H48.2539V0.5H51.5742V16.5H48.293V14.5781H48.1523C47.9961 14.9115 47.7747 15.2422 47.4883 15.5703C47.207 15.8932 46.8398 16.1615 46.3867 16.375C45.9388 16.5885 45.3919 16.6953 44.7461 16.6953ZM45.8008 14.0469C46.3372 14.0469 46.7904 13.901 47.1602 13.6094C47.5352 13.3125 47.8216 12.8984 48.0195 12.3672C48.2227 11.8359 48.3242 11.2135 48.3242 10.5C48.3242 9.78646 48.2253 9.16667 48.0273 8.64062C47.8294 8.11458 47.543 7.70833 47.168 7.42187C46.793 7.13542 46.3372 6.99219 45.8008 6.99219C45.2539 6.99219 44.793 7.14062 44.418 7.4375C44.043 7.73437 43.7591 8.14583 43.5664 8.67187C43.3737 9.19792 43.2773 9.80729 43.2773 10.5C43.2773 11.1979 43.3737 11.8151 43.5664 12.3516C43.7643 12.8828 44.0482 13.2995 44.418 13.6016C44.793 13.8984 45.2539 14.0469 45.8008 14.0469ZM58.0193 16.7344C56.7849 16.7344 55.7224 16.4844 54.8318 15.9844C53.9464 15.4792 53.2641 14.7656 52.7849 13.8437C52.3058 12.9167 52.0662 11.8203 52.0662 10.5547C52.0662 9.32031 52.3058 8.23698 52.7849 7.30469C53.2641 6.3724 53.9386 5.64583 54.8084 5.125C55.6834 4.60417 56.7094 4.34375 57.8865 4.34375C58.6782 4.34375 59.4151 4.47135 60.0974 4.72656C60.7849 4.97656 61.3839 5.35417 61.8943 5.85937C62.4099 6.36458 62.811 7 63.0974 7.76562C63.3839 8.52604 63.5271 9.41667 63.5271 10.4375V11.3516H53.3943V9.28906H60.3943C60.3943 8.8099 60.2901 8.38542 60.0818 8.01563C59.8735 7.64583 59.5844 7.35677 59.2146 7.14844C58.85 6.9349 58.4255 6.82812 57.9412 6.82812C57.436 6.82812 56.988 6.94531 56.5974 7.17969C56.212 7.40885 55.9099 7.71875 55.6912 8.10937C55.4724 8.49479 55.3604 8.92448 55.3552 9.39844V11.3594C55.3552 11.9531 55.4646 12.4661 55.6834 12.8984C55.9073 13.3307 56.2224 13.6641 56.6287 13.8984C57.0349 14.1328 57.5167 14.25 58.074 14.25C58.4438 14.25 58.7823 14.1979 59.0896 14.0938C59.3969 13.9896 59.6599 13.8333 59.8787 13.625C60.0974 13.4167 60.2641 13.1615 60.3787 12.8594L63.4568 13.0625C63.3005 13.8021 62.9802 14.4479 62.4959 15C62.0167 15.5469 61.3969 15.974 60.6365 16.2813C59.8813 16.5833 59.0089 16.7344 58.0193 16.7344ZM69.4077 16.7344C68.1734 16.7344 67.1109 16.4844 66.2202 15.9844C65.3348 15.4792 64.6525 14.7656 64.1734 13.8437C63.6942 12.9167 63.4546 11.8203 63.4546 10.5547C63.4546 9.32031 63.6942 8.23698 64.1734 7.30469C64.6525 6.3724 65.327 5.64583 66.1968 5.125C67.0718 4.60417 68.0978 4.34375 69.2749 4.34375C70.0666 4.34375 70.8036 4.47135 71.4859 4.72656C72.1734 4.97656 72.7723 5.35417 73.2827 5.85937C73.7984 6.36458 74.1994 7 74.4859 7.76562C74.7723 8.52604 74.9155 9.41667 74.9155 10.4375V11.3516H64.7827V9.28906H71.7827C71.7827 8.8099 71.6786 8.38542 71.4702 8.01563C71.2619 7.64583 70.9728 7.35677 70.603 7.14844C70.2385 6.9349 69.814 6.82812 69.3296 6.82812C68.8244 6.82812 68.3765 6.94531 67.9859 7.17969C67.6004 7.40885 67.2984 7.71875 67.0796 8.10937C66.8609 8.49479 66.7489 8.92448 66.7437 9.39844V11.3594C66.7437 11.9531 66.853 12.4661 67.0718 12.8984C67.2958 13.3307 67.6109 13.6641 68.0171 13.8984C68.4234 14.1328 68.9051 14.25 69.4624 14.25C69.8322 14.25 70.1708 14.1979 70.478 14.0938C70.7853 13.9896 71.0484 13.8333 71.2671 13.625C71.4859 13.4167 71.6525 13.1615 71.7671 12.8594L74.8452 13.0625C74.689 13.8021 74.3687 14.4479 73.8843 15C73.4051 15.5469 72.7853 15.974 72.0249 16.2813C71.2697 16.5833 70.3973 16.7344 69.4077 16.7344ZM79.7493 16.6953C78.8378 16.6953 78.0123 16.4609 77.2727 15.9922C76.5384 15.5182 75.955 14.8229 75.5227 13.9062C75.0957 12.9844 74.8821 11.8542 74.8821 10.5156C74.8821 9.14062 75.1035 7.9974 75.5462 7.08594C75.9889 6.16927 76.5774 5.48437 77.3118 5.03125C78.0514 4.57292 78.8613 4.34375 79.7415 4.34375C80.4134 4.34375 80.9733 4.45833 81.4212 4.6875C81.8743 4.91146 82.2389 5.19271 82.5149 5.53125C82.7962 5.86458 83.0097 6.19271 83.1555 6.51562H83.2571V0.5H86.5774V16.5H83.2962V14.5781H83.1555C82.9993 14.9115 82.7779 15.2422 82.4915 15.5703C82.2102 15.8932 81.843 16.1615 81.3899 16.375C80.942 16.5885 80.3951 16.6953 79.7493 16.6953ZM80.804 14.0469C81.3404 14.0469 81.7936 13.901 82.1634 13.6094C82.5384 13.3125 82.8248 12.8984 83.0227 12.3672C83.2259 11.8359 83.3274 11.2135 83.3274 10.5C83.3274 9.78646 83.2285 9.16667 83.0305 8.64062C82.8326 8.11458 82.5462 7.70833 82.1712 7.42187C81.7962 7.13542 81.3404 6.99219 80.804 6.99219C80.2571 6.99219 79.7962 7.14062 79.4212 7.4375C79.0462 7.73437 78.7623 8.14583 78.5696 8.67187C78.3769 9.19792 78.2805 9.80729 78.2805 10.5C78.2805 11.1979 78.3769 11.8151 78.5696 12.3516C78.7675 12.8828 79.0514 13.2995 79.4212 13.6016C79.7962 13.8984 80.2571 14.0469 80.804 14.0469ZM89.4991 16.7031C88.9834 16.7031 88.5407 16.5208 88.1709 16.1562C87.8064 15.7865 87.6241 15.3437 87.6241 14.8281C87.6241 14.3177 87.8064 13.8802 88.1709 13.5156C88.5407 13.151 88.9834 12.9687 89.4991 12.9687C89.9991 12.9687 90.4366 13.151 90.8116 13.5156C91.1866 13.8802 91.3741 14.3177 91.3741 14.8281C91.3741 15.1719 91.2855 15.487 91.1084 15.7734C90.9366 16.0547 90.71 16.2812 90.4287 16.4531C90.1475 16.6198 89.8376 16.7031 89.4991 16.7031Z" fill="#4F4F4E"/>
</svg>
