<svg width="306" height="46" viewBox="0 0 306 46" fill="none" xmlns="http://www.w3.org/2000/svg">
<rect x="0.5" y="0.5" width="45" height="45" rx="22.5" fill="white"/>
<rect x="0.5" y="0.5" width="45" height="45" rx="22.5" stroke="#D8D0D5"/>
<path d="M23 11H19C16.7909 11 15 12.7909 15 15C15 17.2091 16.7909 19 19 19M23 11V19M23 11H27C29.2092 11 31 12.7909 31 15C31 17.2091 29.2092 19 27 19M19 19H23M19 19C16.7909 19 15 20.7908 15 23C15 25.2092 16.7909 27 19 27M23 19H27M23 19V27M27 19C29.2092 19 31 20.7908 31 23C31 25.2092 29.2092 27 27 27C24.7908 27 23 25.2092 23 23C23 20.7908 24.7908 19 27 19ZM23 27H19M23 27V31C23 33.2092 21.2092 35 19 35C16.7909 35 15 33.2092 15 31C15 28.7908 16.7909 27 19 27" stroke="#262625" stroke-width="2" stroke-linecap="round" stroke-linejoin="round"/>
<rect x="65.5" y="0.5" width="45" height="45" rx="22.5" fill="white"/>
<rect x="65.5" y="0.5" width="45" height="45" rx="22.5" stroke="#D8D0D5"/>
<path d="M78.7926 7.03125H80.2321V8.4535H81.5489V7.03125H82.9886V11.3381H81.5491V9.89581H80.2323V11.3381H78.7927V7.03125H78.7926ZM84.8815 8.4595H83.6143V7.03125H87.5889V8.4595H86.3211V11.3381H84.8816V8.4595H84.8815ZM88.2197 7.03125H89.7209L90.6441 8.54456L91.5666 7.03125H93.068V11.3381H91.6344V9.20344L90.6441 10.7347H90.6194L89.6284 9.20344V11.3381H88.2197V7.03125ZM93.7846 7.03125H95.2244V9.91456H97.2489V11.3381H93.7846V7.03125ZM76.6875 13.3078L78.7466 36.4036L87.9869 38.9686L97.2528 36.3999L99.3141 13.3077L76.6875 13.3078ZM95.0189 18.7887L94.8899 20.2247L94.8333 20.8615H94.824H88.0008H87.9909H83.9937L84.2526 23.7619H87.9909H88.0008H93.8121H94.5754L94.5063 24.5227L93.8407 31.9802L93.7981 32.4584L88.0008 34.0652V34.0657L87.9878 34.0694L82.1854 32.4586L81.7884 28.011H83.0991H84.632L84.8337 30.2701L87.9883 31.1221L87.9909 31.1213V31.1211L91.1504 30.2686L91.4789 26.5947H88.0008H87.9909H81.6619L80.9657 18.7887L80.8979 18.0289H87.9909H88.0008H95.0867L95.0189 18.7887Z" fill="#262625"/>
<rect x="130.5" y="0.5" width="45" height="45" rx="22.5" fill="white"/>
<rect x="130.5" y="0.5" width="45" height="45" rx="22.5" stroke="#D8D0D5"/>
<g clip-path="url(#clip0_221_2085)">
<path d="M153 12.334C150.812 12.334 148.93 12.9247 147.453 14.1908C145.986 15.4477 145.027 17.2775 144.495 19.5583C144.379 20.056 144.632 20.5662 145.099 20.7746C145.565 20.983 146.114 20.8311 146.407 20.4123C147.083 19.4474 147.757 18.8676 148.405 18.57C149.033 18.2818 149.709 18.2234 150.484 18.431C151.266 18.6404 151.872 19.2539 152.822 20.2874L152.853 20.3208C153.569 21.1 154.443 22.0505 155.638 22.7879C156.878 23.5531 158.422 24.0673 160.467 24.0673C162.656 24.0673 164.537 23.4765 166.015 22.2105C167.481 20.9536 168.44 19.1237 168.972 16.843C169.088 16.3453 168.835 15.8351 168.368 15.6267C167.902 15.4183 167.353 15.5702 167.06 15.9889C166.384 16.9539 165.71 17.5337 165.062 17.8313C164.434 18.1195 163.758 18.1778 162.983 17.9703C162.201 17.7608 161.596 17.1474 160.645 16.1139L160.615 16.0805C159.898 15.3013 159.024 14.3508 157.829 13.6134C156.589 12.8481 155.046 12.334 153 12.334Z" fill="#262625"/>
<path d="M145.533 21.9336C143.345 21.9336 141.463 22.5243 139.986 23.7904C138.52 25.0473 137.56 26.8771 137.028 29.1579C136.912 29.6556 137.165 30.1657 137.632 30.3741C138.099 30.5826 138.648 30.4307 138.941 30.0119C139.616 29.047 140.291 28.4672 140.939 28.1696C141.566 27.8814 142.243 27.823 143.017 28.0306C143.799 28.24 144.405 28.8535 145.355 29.8871L145.386 29.9204C146.102 30.6995 146.976 31.6501 148.171 32.3876C149.411 33.1528 150.955 33.6669 153 33.6669C155.189 33.6669 157.071 33.0762 158.548 31.8101C160.014 30.5531 160.973 28.7234 161.506 26.4426C161.622 25.9449 161.368 25.4347 160.902 25.2263C160.435 25.0179 159.886 25.1698 159.593 25.5885C158.917 26.5535 158.243 27.1333 157.595 27.4309C156.967 27.719 156.291 27.7775 155.516 27.5699C154.734 27.3605 154.129 26.747 153.179 25.7135L153.148 25.6801C152.431 24.9009 151.558 23.9504 150.362 23.213C149.122 22.4477 147.579 21.9336 145.533 21.9336Z" fill="#262625"/>
</g>
<rect x="195.5" y="0.5" width="45" height="45" rx="22.5" fill="white"/>
<rect x="195.5" y="0.5" width="45" height="45" rx="22.5" stroke="#D8D0D5"/>
<path d="M213.404 10.3589C212.559 10.3028 211.728 10.4541 211 10.8745C210.029 11.4351 209.382 12.392 209.035 13.4936C208.688 14.5953 208.608 15.865 208.734 17.2515C208.747 17.3919 208.772 17.5383 208.789 17.6811C208.657 17.7378 208.517 17.7899 208.389 17.8491C207.125 18.4326 206.066 19.1362 205.285 19.9878C204.505 20.8394 204 21.8783 204 22.9995C204 24.1207 204.505 25.1596 205.285 26.0112C206.066 26.8628 207.125 27.5664 208.389 28.1499C208.517 28.2091 208.657 28.2612 208.789 28.3179C208.772 28.4607 208.747 28.6071 208.734 28.7475C208.608 30.134 208.688 31.4037 209.035 32.5054C209.382 33.607 210.029 34.5639 211 35.1245C211.971 35.6851 213.122 35.7672 214.25 35.5171C215.378 35.267 216.517 34.701 217.654 33.8979C217.769 33.8166 217.885 33.7224 218 33.6362C218.115 33.7224 218.231 33.8166 218.346 33.8979C219.483 34.701 220.622 35.267 221.75 35.5171C222.878 35.7672 224.029 35.6851 225 35.1245C225.971 34.5639 226.618 33.607 226.965 32.5054C227.312 31.4037 227.392 30.134 227.266 28.7475C227.253 28.6071 227.228 28.4607 227.211 28.3179C227.343 28.2612 227.483 28.2091 227.611 28.1499C228.875 27.5664 229.934 26.8628 230.715 26.0112C231.495 25.1596 232 24.1207 232 22.9995C232 21.8783 231.495 20.8394 230.715 19.9878C229.934 19.1362 228.875 18.4326 227.611 17.8491C227.483 17.7899 227.343 17.7378 227.211 17.6811C227.228 17.5383 227.253 17.3919 227.266 17.2515C227.392 15.865 227.312 14.5953 226.965 13.4936C226.618 12.392 225.971 11.4351 225 10.8745C224.029 10.3139 222.878 10.2319 221.75 10.4819C220.622 10.732 219.483 11.298 218.346 12.1011C218.231 12.1824 218.115 12.2766 218 12.3628C217.885 12.2766 217.769 12.1824 217.654 12.1011C216.517 11.298 215.378 10.732 214.25 10.4819C213.968 10.4194 213.686 10.3776 213.404 10.3589ZM213.273 12.3511C213.444 12.3639 213.625 12.3922 213.818 12.435C214.574 12.6026 215.479 13.0268 216.434 13.6909C215.639 14.4451 214.856 15.3031 214.109 16.2632C212.906 16.4299 211.772 16.6767 210.723 16.9878C210.625 15.8295 210.709 14.8332 210.941 14.0952C211.18 13.3397 211.536 12.8748 212 12.6069C212.348 12.406 212.762 12.3126 213.273 12.3511ZM222.727 12.3511C223.238 12.3126 223.652 12.406 224 12.6069C224.464 12.8748 224.82 13.3397 225.059 14.0952C225.291 14.8332 225.375 15.8295 225.277 16.9878C224.228 16.6767 223.094 16.4299 221.891 16.2632C221.144 15.3031 220.361 14.4451 219.566 13.6909C220.521 13.0268 221.426 12.6026 222.182 12.435C222.375 12.3922 222.556 12.3639 222.727 12.3511ZM218 14.9585C218.351 15.2835 218.702 15.6448 219.053 16.0229C218.704 16.0106 218.355 15.9995 218 15.9995C217.645 15.9995 217.296 16.0106 216.947 16.0229C217.298 15.6448 217.649 15.2835 218 14.9585ZM218 17.9995C218.965 17.9995 219.899 18.0562 220.799 18.1518C221.331 18.883 221.848 19.6642 222.33 20.4995C222.812 21.3349 223.231 22.1727 223.598 22.9995C223.231 23.8263 222.812 24.6641 222.33 25.4995C221.848 26.3348 221.331 27.116 220.799 27.8472C219.899 27.9428 218.965 27.9995 218 27.9995C217.035 27.9995 216.101 27.9428 215.201 27.8472C214.669 27.116 214.152 26.3348 213.67 25.4995C213.188 24.6641 212.769 23.8263 212.402 22.9995C212.769 22.1727 213.188 21.3349 213.67 20.4995C214.152 19.6642 214.669 18.883 215.201 18.1518C216.101 18.0562 217.035 17.9995 218 17.9995ZM212.484 18.5991C212.299 18.8949 212.115 19.1917 211.938 19.4995C211.76 19.8074 211.595 20.1152 211.432 20.4233C211.28 19.9316 211.143 19.4462 211.037 18.98C211.494 18.8381 211.982 18.7135 212.484 18.5991ZM223.516 18.5991C224.018 18.7135 224.506 18.8381 224.963 18.98C224.857 19.4462 224.72 19.9316 224.568 20.4233C224.405 20.1152 224.24 19.8074 224.062 19.4995C223.885 19.1917 223.701 18.8949 223.516 18.5991ZM209.154 19.7026C209.41 20.768 209.763 21.8729 210.221 22.9995C209.763 24.1261 209.41 25.231 209.154 26.2964C208.103 25.802 207.282 25.23 206.76 24.6597C206.225 24.0756 206 23.5352 206 22.9995C206 22.4638 206.225 21.9234 206.76 21.3393C207.282 20.769 208.103 20.197 209.154 19.7026ZM226.846 19.7026C227.897 20.197 228.718 20.769 229.24 21.3393C229.775 21.9234 230 22.4638 230 22.9995C230 23.5352 229.775 24.0756 229.24 24.6597C228.718 25.23 227.897 25.802 226.846 26.2964C226.59 25.231 226.237 24.1261 225.779 22.9995C226.237 21.8729 226.59 20.768 226.846 19.7026ZM218 19.9995C216.355 19.9995 215 21.3545 215 22.9995C215 24.6445 216.355 25.9995 218 25.9995C219.645 25.9995 221 24.6445 221 22.9995C221 21.3545 219.645 19.9995 218 19.9995ZM218 21.9995C218.564 21.9995 219 22.4354 219 22.9995C219 23.5636 218.564 23.9995 218 23.9995C217.436 23.9995 217 23.5636 217 22.9995C217 22.4354 217.436 21.9995 218 21.9995ZM211.432 25.5757C211.595 25.8838 211.76 26.1917 211.938 26.4995C212.115 26.8073 212.299 27.1041 212.484 27.3999C211.982 27.2855 211.494 27.1609 211.037 27.019C211.143 26.5528 211.28 26.0674 211.432 25.5757ZM224.568 25.5757C224.72 26.0674 224.857 26.5528 224.963 27.019C224.506 27.1609 224.018 27.2855 223.516 27.3999C223.701 27.1041 223.885 26.8073 224.062 26.4995C224.24 26.1917 224.405 25.8838 224.568 25.5757ZM210.723 29.0112C211.772 29.3223 212.906 29.5691 214.109 29.7358C214.856 30.6959 215.639 31.5539 216.434 32.3081C215.479 32.9722 214.574 33.3964 213.818 33.564C213.045 33.7355 212.464 33.6599 212 33.3921C211.536 33.1242 211.18 32.6593 210.941 31.9038C210.709 31.1658 210.625 30.1695 210.723 29.0112ZM225.277 29.0112C225.375 30.1695 225.291 31.1658 225.059 31.9038C224.82 32.6593 224.464 33.1242 224 33.3921C223.536 33.6599 222.955 33.7355 222.182 33.564C221.426 33.3964 220.521 32.9722 219.566 32.3081C220.361 31.5539 221.144 30.6959 221.891 29.7358C223.094 29.5691 224.228 29.3223 225.277 29.0112ZM216.947 29.9761C217.296 29.9884 217.645 29.9995 218 29.9995C218.355 29.9995 218.704 29.9884 219.053 29.9761C218.702 30.3542 218.351 30.7155 218 31.0405C217.649 30.7155 217.298 30.3542 216.947 29.9761Z" fill="#262625"/>
<rect x="260.5" y="0.5" width="45" height="45" rx="22.5" fill="white"/>
<rect x="260.5" y="0.5" width="45" height="45" rx="22.5" stroke="#D8D0D5"/>
<g clip-path="url(#clip1_221_2085)">
<path d="M281.952 7.00861C281.883 7.01487 281.664 7.03676 281.467 7.0524C276.922 7.46211 272.665 9.91415 269.969 13.6829C268.467 15.7784 267.507 18.1554 267.144 20.6731C267.016 21.5519 267 21.8115 267 23.0031C267 24.1947 267.016 24.4543 267.144 25.3332C268.013 31.3413 272.29 36.3892 278.089 38.2595C279.127 38.5942 280.222 38.8225 281.467 38.9601C281.952 39.0133 284.048 39.0133 284.533 38.9601C286.682 38.7224 288.502 38.1907 290.298 37.2743C290.573 37.1336 290.626 37.0961 290.589 37.0648C290.564 37.046 289.391 35.4729 287.983 33.5713L285.424 30.1153L282.218 25.3707C280.454 22.7623 279.002 20.6293 278.99 20.6293C278.977 20.6262 278.965 22.7342 278.959 25.3082C278.949 29.815 278.946 29.9964 278.89 30.1028C278.808 30.256 278.746 30.3186 278.614 30.3874C278.514 30.4374 278.427 30.4468 277.954 30.4468H277.413L277.269 30.3561C277.176 30.2967 277.107 30.2185 277.06 30.1278L276.994 29.9871L277 23.7162L277.01 17.4423L277.107 17.3203C277.157 17.2546 277.263 17.1702 277.338 17.1295C277.466 17.067 277.517 17.0607 278.058 17.0607C278.696 17.0607 278.802 17.0857 278.968 17.2671C279.015 17.3172 280.751 19.9318 282.828 23.0813C284.905 26.2308 287.745 30.5313 289.14 32.6424L291.674 36.4799L291.802 36.3955C292.938 35.6574 294.139 34.6065 295.09 33.5119C297.114 31.188 298.418 28.3544 298.856 25.3332C298.984 24.4543 299 24.1947 299 23.0031C299 21.8115 298.984 21.5519 298.856 20.6731C297.987 14.665 293.71 9.61703 287.911 7.74672C286.888 7.4152 285.8 7.18688 284.58 7.04927C284.279 7.01799 282.212 6.98359 281.952 7.00861ZM288.502 16.6854C288.652 16.7605 288.774 16.9043 288.818 17.0544C288.843 17.1358 288.849 18.8747 288.843 22.7936L288.834 28.417L287.842 26.897L286.848 25.377V21.2892C286.848 18.6464 286.86 17.1608 286.879 17.0889C286.929 16.9137 287.038 16.7761 287.188 16.6948C287.317 16.6291 287.364 16.6228 287.855 16.6228C288.318 16.6228 288.399 16.6291 288.502 16.6854Z" fill="#262625"/>
</g>
<defs>
<clipPath id="clip0_221_2085">
<rect width="32" height="32" fill="white" transform="translate(137 7)"/>
</clipPath>
<clipPath id="clip1_221_2085">
<rect width="32" height="32" fill="white" transform="translate(267 7)"/>
</clipPath>
</defs>
</svg>
